<?xml version="1.0" standalone="no"?>
<!DOCTYPE svg PUBLIC "-//W3C//DTD SVG 20010904//EN"
 "http://www.w3.org/TR/2001/REC-SVG-20010904/DTD/svg10.dtd">
<svg version="1.0" xmlns="http://www.w3.org/2000/svg"
 width="300.000000pt" height="300.000000pt" viewBox="0 0 300.000000 300.000000"
 preserveAspectRatio="xMidYMid meet">
<metadata>
Created by potrace 1.11, written by Peter Selinger 2001-2013
</metadata>
<g transform="translate(0.000000,300.000000) scale(0.100000,-0.100000)"
fill="#000000" stroke="none">
<path d="M780 2805 c-58 -12 -160 -60 -197 -91 -12 -11 -30 -26 -40 -35 -79
-69 -151 -187 -204 -338 -25 -71 -19 -75 12 -8 47 102 95 173 165 242 90 89
93 92 166 122 83 33 203 42 283 19 112 -32 201 -94 372 -257 88 -84 128 -109
172 -109 50 0 164 59 292 152 240 172 264 182 444 183 77 0 98 -4 145 -27 65
-31 110 -72 146 -134 29 -49 76 -189 66 -198 -3 -3 0 -6 6 -6 16 0 15 10 -4
84 -20 81 -74 186 -121 237 -196 212 -557 189 -898 -58 -32 -24 -65 -43 -72
-43 -7 0 -29 18 -50 40 -45 49 -153 122 -236 159 -53 24 -111 43 -119 40 -2 0
-15 4 -31 10 -68 26 -216 34 -297 16z"/>
<path d="M2126 2469 c-161 -33 -239 -69 -435 -201 -153 -102 -227 -143 -290
-157 -102 -23 -216 8 -325 86 -28 21 -53 40 -56 43 -3 3 -16 14 -30 25 -24 20
-24 20 -10 0 128 -170 262 -252 411 -253 114 0 204 29 454 148 312 149 482
197 543 154 13 -9 22 -26 22 -41 0 -22 2 -24 16 -12 24 20 43 63 40 92 -5 43
-32 74 -88 101 -67 32 -144 37 -252 15z"/>
<path d="M2637 2329 c9 -144 3 -468 -11 -594 -2 -16 -7 -57 -10 -90 -11 -102
-16 -139 -21 -165 -3 -14 -7 -43 -10 -65 -3 -22 -7 -47 -10 -55 -2 -8 -7 -31
-10 -50 -5 -28 -30 -138 -59 -255 -20 -82 -91 -267 -143 -375 -85 -176 -198
-326 -321 -426 -65 -53 -48 -58 28 -8 69 45 190 168 253 256 139 195 265 479
322 723 53 232 69 365 69 585 0 153 -7 238 -28 375 -10 60 -46 229 -51 234 -3
2 -2 -38 2 -90z"/>
<path d="M326 2143 c-32 -182 -26 -507 15 -768 6 -38 12 -83 15 -100 4 -32 7
-49 24 -130 6 -27 12 -59 14 -70 29 -147 124 -420 193 -553 150 -288 365 -454
500 -385 84 43 153 206 189 448 5 30 21 121 30 172 12 64 46 176 69 228 33 76
62 115 99 132 l31 14 -30 -6 c-42 -9 -78 -47 -118 -124 -31 -60 -72 -167 -81
-217 -14 -69 -68 -269 -87 -318 -26 -70 -89 -143 -127 -148 -140 -18 -360 203
-502 505 -66 141 -145 379 -166 507 -3 14 -7 32 -9 40 -8 29 -22 110 -30 185
-4 28 -8 61 -11 75 -15 92 -20 331 -10 468 7 86 3 108 -8 45z"/>
<path d="M1546 1071 c-8 -14 4 -187 20 -268 48 -258 135 -418 299 -548 33 -26
43 -31 30 -15 -11 14 -22 27 -25 30 -24 22 -74 115 -90 166 -25 83 -29 126
-32 336 -1 159 -4 182 -23 220 -12 24 -35 51 -52 61 -31 18 -120 31 -127 18z"/>
</g>
</svg>
