<?xml version="1.0" standalone="no"?>
<!DOCTYPE svg PUBLIC "-//W3C//DTD SVG 20010904//EN"
 "http://www.w3.org/TR/2001/REC-SVG-20010904/DTD/svg10.dtd">
<svg version="1.0" xmlns="http://www.w3.org/2000/svg"
 width="251.000000pt" height="251.000000pt" viewBox="0 0 251.000000 251.000000"
 preserveAspectRatio="xMidYMid meet">
<metadata>
Created by potrace 1.11, written by Peter Selinger 2001-2013
</metadata>
<g transform="translate(0.000000,251.000000) scale(0.100000,-0.100000)"
fill="#000000" stroke="none">
<path d="M1150 2504 c0 -9 33 -54 39 -54 17 0 4 38 -16 47 -13 6 -23 9 -23 7z"/>
<path d="M1225 2490 c3 -5 13 -10 20 -10 8 0 19 -9 25 -20 9 -16 8 -20 -7 -21
-16 0 -15 -1 2 -9 11 -4 49 -6 85 -3 50 3 61 2 47 -7 -9 -6 -22 -8 -27 -5 -25
15 -117 -35 -104 -56 2 -3 42 -5 89 -3 73 3 84 1 72 -11 -9 -8 -45 -15 -98
-18 -251 -15 -269 -18 -239 -37 10 -7 -2 -10 -40 -10 -30 0 -66 -7 -80 -15
-14 -8 -30 -14 -37 -15 -15 0 -6 27 10 33 7 2 1 2 -13 -1 -14 -2 -37 -6 -52
-8 -15 -2 -45 -14 -65 -27 -64 -40 -69 -41 -32 -5 20 19 51 40 68 48 24 9 29
15 19 22 -8 5 -4 7 12 3 14 -3 39 -1 55 5 17 7 74 16 127 20 70 6 111 14 145
31 l48 24 -35 6 c-19 4 -30 7 -25 8 6 1 4 5 -4 10 -10 6 -18 5 -25 -4 -6 -7
-28 -15 -49 -18 -33 -5 -37 -4 -27 8 10 12 9 15 -4 15 -9 0 -16 -5 -16 -12 0
-6 -3 -8 -7 -5 -3 4 -21 -3 -39 -14 -19 -11 -39 -17 -45 -13 -8 5 -8 8 0 13 6
4 -6 8 -27 8 -24 1 -47 -6 -67 -21 -46 -34 -105 -66 -105 -57 0 11 72 67 117
91 22 11 75 27 118 35 43 9 81 17 83 20 20 20 -159 16 -198 -5 -34 -18 -126
-114 -146 -153 -9 -18 -35 -50 -58 -73 -68 -68 -91 -104 -91 -146 0 -28 -4
-40 -17 -44 -21 -6 -23 -15 -6 -32 8 -8 8 -12 1 -12 -15 0 -59 -96 -77 -167
-35 -139 14 -682 72 -803 l17 -35 3 43 c2 23 7 42 12 42 13 0 44 -49 37 -56
-3 -4 3 -28 14 -55 10 -28 19 -58 19 -67 0 -10 8 -29 17 -42 10 -14 18 -31 20
-39 1 -8 17 -37 37 -65 39 -58 52 -100 61 -206 3 -41 11 -115 16 -163 10 -83
10 -90 -9 -110 -11 -12 -28 -38 -38 -57 -11 -19 -29 -50 -42 -67 -13 -18 -20
-37 -17 -43 3 -5 -1 -10 -10 -10 -9 0 -13 -5 -10 -10 4 -6 3 -10 -2 -9 -4 2
-21 -4 -36 -11 -36 -17 -32 -45 7 -46 15 -1 31 -6 35 -12 4 -6 52 -10 126 -10
66 0 113 2 105 4 -13 4 -15 18 -13 71 2 37 9 70 15 74 8 5 7 14 -5 33 -9 14
-13 28 -8 31 5 3 13 0 17 -7 13 -20 24 30 13 59 -8 23 -8 24 6 13 12 -10 16
-9 21 4 5 13 13 6 40 -28 28 -37 52 -56 70 -56 12 0 1 29 -17 46 -22 19 -22
19 -10 -3 6 -13 8 -23 3 -23 -13 0 -28 20 -37 49 -7 24 -7 24 36 -7 52 -39 62
-40 49 -6 -13 34 -13 39 5 24 20 -17 52 -5 36 14 -9 11 -6 15 15 19 16 3 27 0
31 -9 2 -7 11 -10 19 -7 8 3 14 -1 14 -7 0 -9 8 -6 21 6 16 14 23 15 26 7 3
-9 10 -10 23 -3 10 5 32 11 49 12 23 2 30 6 26 16 -4 12 2 13 34 8 22 -3 47
-3 56 0 14 6 14 8 -2 28 -16 19 -16 19 0 7 15 -12 17 -11 17 3 0 9 7 16 15 16
25 0 85 59 78 77 -4 11 -2 14 5 9 7 -4 12 -2 12 4 0 7 6 10 14 7 20 -8 28 4
14 20 -9 11 -7 12 7 7 13 -5 16 -3 13 7 -3 8 9 32 26 54 55 72 66 79 66 44 0
-11 5 -17 10 -14 7 4 7 13 0 25 -13 25 -3 67 25 105 13 17 30 66 40 110 9 44
23 95 31 114 10 25 11 37 3 47 -6 7 -7 18 -3 25 4 6 6 39 5 73 -2 60 17 127
38 141 7 4 6 14 -1 30 -6 13 -7 32 -3 42 5 10 7 24 6 31 -1 7 11 12 31 13 30
0 86 17 64 18 -5 1 -1 10 9 21 10 11 14 20 9 20 -5 0 -8 55 -7 123 1 67 3 161
3 209 1 48 -3 102 -8 120 -6 18 -13 50 -16 70 -4 20 -22 58 -40 85 -18 27 -36
58 -40 71 -18 56 -62 115 -140 185 -56 51 -92 77 -108 77 -20 -1 -18 -4 15
-21 38 -20 51 -34 20 -22 -12 5 -15 2 -10 -10 3 -8 1 -18 -6 -20 -8 -3 -5 -10
8 -22 11 -9 14 -14 8 -10 -20 10 -15 -9 7 -28 11 -9 20 -21 20 -27 0 -20 -108
71 -114 95 -8 31 -50 71 -101 96 -22 10 -52 30 -66 43 -40 37 -64 46 -119 46
-32 0 -49 4 -45 10 4 6 -5 10 -20 10 -15 0 -24 -4 -20 -10z m-275 -24 c0 -2
-7 -7 -16 -10 -8 -3 -12 -2 -9 4 6 10 25 14 25 6z m376 -73 c-15 -4 -16 -7 -5
-14 11 -7 11 -9 -3 -9 -18 0 -23 11 -11 23 3 4 13 6 22 6 12 -1 11 -3 -3 -6z
m173 -93 c11 -17 12 -22 3 -19 -8 3 -12 8 -10 11 2 4 -6 14 -17 23 -11 9 -14
15 -6 13 8 -2 21 -15 30 -28z m-503 -69 c-17 -3 -28 -10 -25 -14 2 -5 -14 -15
-36 -23 -50 -17 -50 -17 -35 1 10 12 9 15 -6 15 -11 0 -14 3 -8 9 13 13 42 19
94 19 37 0 40 -1 16 -7z m825 -23 c11 -21 11 -22 -4 -9 -10 7 -17 17 -17 22 0
15 9 10 21 -13z m-111 -50 c0 -16 -16 -7 -34 19 l-20 27 27 -20 c14 -10 27
-22 27 -26z m-48 10 c15 -12 32 -58 21 -58 -2 0 -14 5 -26 11 -22 12 -22 12
-3 -10 11 -11 14 -21 8 -21 -6 0 -14 5 -17 10 -3 6 -14 10 -23 9 -14 0 -13 -3
6 -16 12 -8 22 -21 22 -28 0 -8 11 -23 26 -34 14 -11 24 -22 23 -26 -3 -12 25
-70 37 -77 7 -5 10 -16 7 -26 -2 -10 3 -24 11 -32 12 -10 14 -16 5 -26 -9 -11
-8 -14 4 -14 9 0 19 -5 23 -12 5 -7 3 -8 -6 -3 -13 8 -9 -12 16 -72 10 -25 10
-33 1 -34 -9 0 -9 -2 1 -6 8 -3 12 -29 12 -79 0 -88 -6 -91 -78 -40 -51 37
-45 36 -212 35 -156 -1 -164 -2 -178 -31 -15 -31 -78 -54 -121 -43 -14 3 -40
6 -58 5 -24 0 -36 6 -49 25 -9 14 -24 25 -34 25 -10 0 -20 5 -22 11 -2 6 -41
11 -93 12 -79 2 -90 4 -87 20 2 9 -3 17 -10 17 -10 0 -10 2 1 9 21 13 5 41
-24 41 -14 0 -25 -5 -25 -10 0 -12 -45 -9 -57 3 -4 5 -1 12 7 17 10 6 11 12 3
22 -6 7 -9 28 -7 46 2 21 -1 32 -9 32 -8 0 -7 4 3 10 12 7 12 12 2 22 -18 18
-15 28 8 28 11 0 20 5 20 10 0 6 -4 10 -9 10 -5 0 -7 9 -4 19 5 21 29 35 44
25 5 -3 9 -1 9 3 0 5 19 17 43 27 23 11 50 26 60 34 20 17 40 24 74 24 12 0
21 5 20 12 -1 6 8 10 21 9 12 -2 22 2 22 7 0 6 11 10 24 10 14 0 31 7 40 15 8
8 25 16 38 17 13 2 26 7 29 12 13 17 95 25 185 20 61 -4 104 -2 128 6 33 11
39 10 51 -7 14 -17 14 -17 15 2 1 11 4 14 7 8 12 -31 40 -7 34 30 -2 11 24 8
41 -5z m93 2 c-3 -5 -11 -10 -16 -10 -6 0 -7 5 -4 10 3 6 11 10 16 10 6 0 7
-4 4 -10z m73 -205 c-3 -4 -16 9 -28 27 l-23 33 28 -27 c16 -15 26 -30 23 -33z
m-1048 -369 c0 -2 3 -11 6 -20 8 -21 -6 -20 -36 4 l-25 20 28 0 c15 0 27 -2
27 -4z m838 -52 c19 -4 23 -10 20 -37 -2 -20 -8 -32 -18 -32 -8 0 -20 -4 -26
-8 -6 -3 -31 7 -56 23 -62 41 -115 48 -151 20 -15 -12 -24 -26 -21 -31 3 -6
-2 -17 -12 -24 -18 -14 -18 -14 4 -15 25 0 30 -18 7 -26 -22 -9 -18 -30 7 -48
31 -22 39 -20 32 8 -4 16 -1 25 11 30 9 3 14 10 11 15 -12 18 125 29 152 12
20 -12 4 -78 -28 -114 -24 -27 -35 -31 -93 -35 l-65 -4 -28 48 c-23 39 -29 61
-29 109 l0 59 43 24 c63 35 150 44 240 26z m-871 0 c-3 -3 -12 -4 -19 -1 -8 3
-5 6 6 6 11 1 17 -2 13 -5z m278 -14 c3 -5 -2 -10 -12 -11 -86 -3 -138 -31
-185 -100 -48 -70 -50 -103 -7 -92 10 3 19 14 19 24 0 23 41 61 78 72 15 5 51
11 80 14 46 4 52 3 52 -14 0 -11 -15 -37 -33 -59 -19 -21 -36 -47 -40 -56 -5
-14 -18 -18 -54 -18 -26 0 -54 4 -62 9 -19 12 -41 3 -35 -14 7 -16 78 -35 141
-36 46 -1 47 -1 19 -11 -35 -13 -139 3 -160 25 -28 28 -57 100 -61 151 -3 46
-1 57 20 76 14 13 46 29 72 36 58 15 159 18 168 4z m682 -110 c-5 -77 -26
-124 -69 -149 -38 -24 -107 -35 -139 -23 -22 9 -21 10 17 16 56 10 88 46 113
128 11 37 28 82 37 100 16 31 17 31 31 12 11 -14 14 -37 10 -84z m-670 84 c-3
-3 -12 -4 -19 -1 -8 3 -5 6 6 6 11 1 17 -2 13 -5z m230 -46 c5 -36 56 -138 89
-177 43 -52 158 -75 249 -50 39 11 85 44 85 61 0 5 11 25 24 46 21 32 39 83
40 117 1 9 8 11 37 7 18 -3 39 -70 46 -147 6 -72 -2 -143 -30 -274 -8 -42 -8
-56 1 -59 15 -5 15 -37 0 -65 -7 -12 -11 -34 -9 -49 3 -36 -41 -125 -85 -171
-35 -36 -38 -37 -55 -21 -11 10 -19 12 -19 7 0 -6 -7 -13 -14 -16 -9 -4 -13
-1 -10 6 2 7 -5 18 -17 25 -19 12 -20 11 -14 -7 7 -24 -12 -29 -21 -6 -5 13
-10 11 -29 -9 -13 -14 -26 -22 -29 -19 -15 15 -4 -23 12 -40 16 -19 16 -19 -8
-12 -25 8 -25 8 -6 -14 23 -25 15 -27 -21 -4 -25 17 -25 17 -19 -5 4 -13 3
-22 -3 -22 -12 0 -41 28 -41 41 0 5 -10 9 -22 9 -20 -1 -21 -2 -6 -11 9 -5 15
-15 13 -22 -9 -32 -14 -81 -6 -68 7 10 12 8 25 -10 14 -21 21 -19 17 4 0 4 4
7 9 7 13 0 13 -17 -1 -25 -6 -4 -8 -13 -5 -20 9 -25 -7 -25 -31 1 -17 19 -23
21 -23 9 0 -9 7 -23 15 -32 19 -19 11 -31 -9 -14 -11 9 -19 7 -41 -13 -26 -24
-66 -26 -46 -2 5 6 12 39 16 74 6 50 4 62 -7 62 -8 0 -15 7 -15 15 0 23 12 18
28 -12 8 -16 17 -30 20 -33 3 -3 11 -14 18 -25 9 -14 11 -15 7 -3 -3 10 -1 20
4 23 6 3 6 15 0 30 -5 14 -6 25 -2 25 4 0 -1 5 -10 11 -10 5 -18 19 -18 29 0
11 -7 20 -15 20 -8 0 -15 9 -15 20 0 11 -4 20 -10 20 -22 0 -8 21 23 33 l32
14 -24 12 c-13 7 -34 11 -47 8 -14 -2 -27 0 -30 4 -8 14 -44 10 -44 -4 0 -8
-8 -13 -17 -13 -10 1 -19 -2 -20 -6 -8 -22 -1 -58 13 -72 8 -9 13 -17 10 -17
-3 -1 -9 -2 -13 -3 -5 -1 -14 -5 -21 -9 -16 -11 -92 1 -92 14 0 5 -7 12 -17
16 -9 3 -31 20 -49 37 -51 47 -59 53 -69 49 -13 -4 -56 90 -45 97 5 3 6 11 1
18 -5 8 -12 0 -21 -23 -8 -19 -20 -35 -27 -35 -18 0 -16 10 4 25 17 13 17 14
-1 33 -10 12 -15 26 -11 34 6 10 5 10 -4 2 -9 -8 -9 -18 -1 -38 7 -20 7 -25
-1 -20 -6 3 -15 1 -19 -6 -12 -20 -31 -1 -24 25 4 16 -1 30 -15 44 -12 12 -21
25 -21 31 0 5 -9 14 -19 20 -12 6 -22 26 -26 52 -4 23 -14 52 -21 64 -16 23
-23 270 -10 311 11 33 37 21 56 -27 35 -89 96 -130 196 -130 58 0 74 -4 89
-20 10 -11 15 -20 11 -20 -3 0 5 -18 19 -40 14 -22 25 -46 25 -53 0 -16 -33
-47 -77 -72 -18 -10 -30 -22 -28 -26 3 -4 -5 -9 -16 -12 -12 -3 -18 -10 -15
-16 4 -5 2 -13 -4 -16 -8 -5 -7 -11 1 -21 10 -12 8 -16 -10 -21 -19 -5 -20 -7
-5 -18 12 -8 13 -14 6 -19 -6 -4 -9 -13 -6 -21 8 -19 24 -9 24 13 0 21 38 47
62 43 10 -1 28 4 40 11 13 7 34 13 48 14 49 2 285 6 290 4 3 -1 25 -3 49 -5
24 -2 48 -8 54 -14 13 -13 30 -15 23 -2 -4 5 3 7 14 4 20 -5 20 -5 3 26 -10
17 -23 31 -29 31 -17 0 -152 69 -156 80 -5 17 -83 -3 -83 -20 0 -8 -4 -20 -10
-26 -7 -8 -13 -3 -22 17 -7 16 -19 32 -28 35 -18 7 -20 31 -2 37 8 3 7 10 -7
26 -27 30 -46 27 -46 -9 0 -22 -5 -30 -18 -30 -24 0 -42 19 -42 45 0 19 47 64
67 65 14 1 53 38 53 51 0 8 -6 6 -19 -5 -16 -15 -22 -15 -40 -4 -26 16 -26 24
-1 45 20 18 28 39 10 28 -5 -3 -10 -4 -10 0 0 3 11 10 25 15 14 5 25 15 25 22
0 9 -3 8 -10 -2 -5 -8 -10 -10 -10 -4 0 6 9 19 20 29 11 10 27 31 35 47 13 27
12 31 -7 50 -16 16 -18 22 -7 29 23 15 42 5 46 -23z m-427 -776 c0 -15 -2 -15
-10 -2 -13 20 -13 33 0 25 6 -3 10 -14 10 -23z m823 -26 c3 -8 0 -19 -7 -25
-11 -9 -13 -6 -13 14 0 27 12 34 20 11z m-449 -130 c-1 -9 3 -16 8 -16 6 0 8
-7 4 -15 -6 -17 -4 -18 19 -9 14 6 14 8 -1 25 -10 11 -12 19 -6 19 7 0 12 -5
12 -11 0 -7 10 -9 25 -5 20 5 25 3 25 -13 0 -10 -7 -24 -15 -31 -8 -7 -15 -19
-15 -26 0 -8 -7 -14 -16 -14 -11 0 -14 -5 -10 -17 5 -11 -1 -9 -16 7 -17 18
-19 26 -10 30 10 4 8 10 -5 25 -21 23 -28 79 -10 72 7 -2 11 -12 11 -21z m71
14 c3 -5 1 -10 -4 -10 -6 0 -11 5 -11 10 0 6 2 10 4 10 3 0 8 -4 11 -10z m143
-15 c-3 -3 -9 2 -12 12 -6 14 -5 15 5 6 7 -7 10 -15 7 -18z m-580 -374 c-3
-36 -11 -79 -18 -96 -11 -28 -13 -28 -21 -10 -11 27 0 132 19 175 19 45 26 23
20 -69z"/>
<path d="M1180 1289 c0 -5 5 -7 10 -4 6 3 10 8 10 11 0 2 -4 4 -10 4 -5 0 -10
-5 -10 -11z"/>
<path d="M1310 1111 c-6 -13 -7 -22 0 -26 12 -8 50 16 50 32 0 20 -38 15 -50
-6z"/>
<path d="M885 901 c-3 -5 -1 -12 5 -16 5 -3 10 1 10 9 0 18 -6 21 -15 7z"/>
<path d="M1083 847 c-24 -5 -43 -13 -43 -17 0 -4 21 -13 46 -20 37 -11 64 -11
138 -1 50 6 119 13 153 16 35 2 73 11 85 19 21 15 8 16 -157 15 -99 -1 -199
-6 -222 -12z"/>
<path d="M957 775 c-9 -21 9 -45 32 -45 11 0 12 3 4 8 -7 4 -16 18 -21 31 -8
21 -9 22 -15 6z"/>
<path d="M1118 2453 c6 -2 18 -2 25 0 6 3 1 5 -13 5 -14 0 -19 -2 -12 -5z"/>
<path d="M1581 2406 c2 -2 15 -9 29 -15 24 -11 24 -11 6 3 -16 13 -49 24 -35
12z"/>
<path d="M1200 2349 c-19 -8 -22 -12 -10 -19 15 -9 50 4 50 20 0 12 -7 12 -40
-1z"/>
<path d="M1982 1300 c0 -14 2 -19 5 -12 2 6 2 18 0 25 -3 6 -5 1 -5 -13z"/>
<path d="M1917 1199 c-9 -5 -24 -23 -32 -39 -14 -26 -14 -30 -1 -30 8 0 18 5
21 10 4 6 22 17 42 25 19 8 33 20 31 27 -6 17 -38 21 -61 7z"/>
<path d="M1756 665 c-3 -8 -1 -15 3 -15 5 0 11 7 15 15 3 8 1 15 -3 15 -5 0
-11 -7 -15 -15z"/>
<path d="M1870 430 c0 -6 12 -29 26 -51 68 -108 69 -169 9 -358 -6 -20 -4 -21
102 -21 62 0 102 4 95 9 -7 4 -27 55 -43 112 -39 134 -78 218 -130 274 -41 44
-59 55 -59 35z"/>
<path d="M703 385 c-15 -11 -22 -28 -25 -62 -5 -58 -10 -76 -23 -85 -14 -10
-396 2 -417 13 -12 7 -24 2 -43 -17 -14 -14 -24 -29 -21 -32 9 -9 -15 -32 -34
-32 -9 0 -29 9 -44 21 -25 20 -28 20 -51 5 -21 -14 -25 -25 -25 -61 0 -40 3
-47 28 -57 44 -17 358 -10 371 9 3 6 22 20 41 32 25 15 30 21 16 21 -11 0 -16
3 -12 7 9 10 46 11 40 2 -2 -4 24 5 58 20 35 16 80 34 100 40 38 13 118 92
118 117 0 23 2 29 18 40 14 10 13 13 -6 23 -29 15 -63 14 -89 -4z m-276 -241
c-3 -3 -12 -4 -19 -1 -8 3 -5 6 6 6 11 1 17 -2 13 -5z"/>
<path d="M387 376 c-16 -12 -15 -14 10 -24 16 -6 49 -12 75 -15 38 -4 51 -1
65 15 15 17 15 21 3 28 -23 15 -132 11 -153 -4z"/>
<path d="M2425 279 c-22 -10 -54 -19 -72 -19 -39 0 -51 -16 -29 -38 13 -13 37
-17 101 -18 l85 -1 0 49 c0 43 -2 48 -22 47 -13 0 -41 -9 -63 -20z"/>
<path d="M980 205 c0 -8 5 -15 10 -15 6 0 10 7 10 15 0 8 -4 15 -10 15 -5 0
-10 -7 -10 -15z"/>
<path d="M1 164 c0 -11 3 -14 6 -6 3 7 2 16 -1 19 -3 4 -6 -2 -5 -13z"/>
<path d="M2391 20 l-23 -20 42 0 c42 0 43 0 25 20 -10 11 -19 20 -19 20 -1 -1
-12 -10 -25 -20z"/>
</g>
</svg>
